<svg width="22" height="22" viewBox="0 0 20 20" fill="none" xmlns="http://www.w3.org/2000/svg">
    <g clip-path="url(#clip0_3301_77188)">
        <path fill-rule="evenodd" clip-rule="evenodd"
              d="M9.53125 4.8125C9.53125 4.53636 9.30739 4.3125 9.03125 4.3125C8.75511 4.3125 8.53125 4.53636 8.53125 4.8125V8.53125L4.8125 8.53125C4.53636 8.53125 4.3125 8.75511 4.3125 9.03125C4.3125 9.30739 4.53636 9.53125 4.8125 9.53125L8.53125 9.53125V13.1875C8.53125 13.4636 8.75511 13.6875 9.03125 13.6875C9.30739 13.6875 9.53125 13.4636 9.53125 13.1875V9.53125L13.1875 9.53125C13.4636 9.53125 13.6875 9.30739 13.6875 9.03125C13.6875 8.75511 13.4636 8.53125 13.1875 8.53125L9.53125 8.53125V4.8125Z"
              fill="#212529"/>
        <path d="M16.75 9C16.75 13.2802 13.2802 16.75 9 16.75C4.71979 16.75 1.25 13.2802 1.25 9C1.25 4.71979 4.71979 1.25 9 1.25C13.2802 1.25 16.75 4.71979 16.75 9Z"
              stroke="#212529" stroke-linecap="round"/>
    </g>
    <defs>
        <clipPath id="clip0_3301_77188">
            <rect width="20" height="20" fill="white"/>
        </clipPath>
    </defs>
</svg>
