<svg width="24" height="24" viewBox="0 0 24 24" fill="none" xmlns="http://www.w3.org/2000/svg">
<path d="M4.21444 12.6113C4.10377 12.4265 4.04843 12.334 4.01745 12.1915C3.99418 12.0844 3.99418 11.9156 4.01745 11.8085C4.04843 11.666 4.10377 11.5735 4.21444 11.3887C5.12902 9.86129 7.85134 6 12 6C16.1487 6 18.871 9.86129 19.7856 11.3887C19.8962 11.5735 19.9516 11.666 19.9825 11.8085C20.0058 11.9156 20.0058 12.0844 19.9825 12.1915C19.9516 12.334 19.8962 12.4265 19.7856 12.6113C18.871 14.1387 16.1487 18 12 18C7.85134 18 5.12902 14.1387 4.21444 12.6113Z" stroke="#6F7CA0" stroke-linecap="round" stroke-linejoin="round"/>
<path d="M12 14.5714C13.3465 14.5714 14.438 13.4202 14.438 12C14.438 10.5798 13.3465 9.42857 12 9.42857C10.6535 9.42857 9.56201 10.5798 9.56201 12C9.56201 13.4202 10.6535 14.5714 12 14.5714Z" stroke="#6F7CA0" stroke-linecap="round" stroke-linejoin="round"/>
</svg>
